<svg xmlns="http://www.w3.org/2000/svg" width="256" height="256" viewBox="0 0 40 30">
    <path fill="#b80000"
          d="M24.79 22.43l.075.18 2.549 6.168.162.393H11.434l.225-.418 3.287-6.168.082-.156zM.363 29.195l8.265-16.133.47-.898c.198 1.626.72 3.197 1.534 4.62a42.322 42.322 0 0 1-.444-4.9 12.7 12.7 0 0 1 .438-2.096c.037-.442.176-.869.407-1.248.37.761.55 1.472 1.252 2.008a2.082 2.082 0 0 0-.194-.717 5.117 5.117 0 0 1-.131-.979 5.262 5.262 0 0 1 .169-1.977 8.21 8.21 0 0 1 2.786-3.648 5.857 5.857 0 0 1 3.713-1.21 7.888 7.888 0 0 0 2.186-.33c.714-.206.958-.661 1.252-1.285a4.919 4.919 0 0 1-1.603 2.407 8.91 8.91 0 0 1-1.991.967c-.626.262-1.24.468-1.353 1.297-.112.83.551 1.434 1.253.892-.113.53-.15.835-.627 1.154a1.469 1.469 0 0 1-1.127.317c-.82-.068-1.609-.187-2.335.362a1.865 1.865 0 0 0-.131 2.738c.42.399 1.048.489 1.565.225.55-.262.807-.83 1.302-1.098a1.476 1.476 0 0 1-.626 1.578 14.612 14.612 0 0 0-2.236 1.914 6.416 6.416 0 0 0-1.596 3.742c-.085.77.04 1.547.363 2.251L7.67 29.171zm18.91-22.033c.238-.717.47-1.328.627-1.715a6.178 6.178 0 0 1 2.58-3.118 5.081 5.081 0 0 1 3.569-.692A12.8 12.8 0 0 0 24.959.39h4.552l-.2.411-2.98 6.161-.076.163h-6.168zm.32 4.82h12.122l.082.163 8.14 17.025h-8.522c-1.528-3.492-2.968-6.979-4.42-10.47H16.06v-.1l3.532-6.623z"/>
</svg>
